<svg height="512pt" viewBox="0 0 512 512" width="512pt" xmlns="http://www.w3.org/2000/svg"><path d="m352 0v80h-32v-48h-128v48h-32v-80zm0 0" fill="#b0b4b9"/><path d="m160 32h32v48h-32zm0 0" fill="#9da2a5"/><path d="m320 32h32v48h-32zm0 0" fill="#9da2a5"/><path d="m512 96v288c0 17.679688-14.320312 32-32 32h-448c-17.679688 0-32-14.320312-32-32v-288c0-17.679688 14.320312-32 32-32h448c17.679688 0 32 14.320312 32 32zm0 0" fill="#77959e"/><path d="m448 96v320h-384v-195.839844l124.160156-124.160156zm0 0" fill="#62808c"/><path d="m416 160v320c0 17.679688-14.320312 32-32 32h-256c-17.679688 0-32-14.320312-32-32v-246.558594l105.441406-105.441406h182.558594c17.679688 0 32 14.320312 32 32zm0 0" fill="#ffcb5a"/><path d="m224 128v80c0 26.511719-21.488281 48-48 48h-80v-22.558594l105.441406-105.441406zm0 0" fill="#fba61f"/><path d="m201.503906 128h-.128906l-105.007812 105.007812h73.121093c17.679688 0 32-14.320312 32-32v-73.007812zm0 0" fill="#ffcb5a"/><g fill="#fff"><path d="m160 288h192v32h-192zm0 0"/><path d="m160 352h192v32h-192zm0 0"/><path d="m256 416h96v32h-96zm0 0"/><path d="m320 224h32v32h-32zm0 0"/><path d="m256 224h32v32h-32zm0 0"/></g></svg>